<?xml version="1.0" encoding="utf-8"?>
<!-- Generator: Adobe Illustrator 26.0.2, SVG Export Plug-In . SVG Version: 6.00 Build 0)  -->
<svg version="1.1"
	 id="Layer_1" xmlns:cc="http://creativecommons.org/ns#" xmlns:dc="http://purl.org/dc/elements/1.1/" xmlns:rdf="http://www.w3.org/1999/02/22-rdf-syntax-ns#"
	 xmlns="http://www.w3.org/2000/svg" xmlns:xlink="http://www.w3.org/1999/xlink" x="0px" y="0px" viewBox="0 0 286 196.7"
	 style="enable-background:new 0 0 286 196.7;" xml:space="preserve">
<style type="text/css">
	.st0{fill:url(#SVGID_1_);}
	.st1{fill:#FFFFFF;}
	.st2{fill:url(#SVGID_00000097502686556784142780000004889016754241810613_);}
</style>
<g transform="translate(194.07 -77.853)">
	
		<linearGradient id="SVGID_1_" gradientUnits="userSpaceOnUse" x1="984.5349" y1="-618.7284" x2="1121.0365" y2="-618.7284" gradientTransform="matrix(0.3573 0 0 -0.3573 -308.5948 18.2743)">
		<stop  offset="0" style="stop-color:#00AAEC"/>
		<stop  offset="1" style="stop-color:#0076D0"/>
	</linearGradient>
	<path class="st0" d="M47.9,213.4c8.5-11.6,27.6-12.4,37.4-2.1c6.3,6.5,8.3,16.8,4.9,25.2c-2,5.4-5,10.4-7.8,15.5
		c-4.1,7.5-8.2,15.1-12.4,22.6c-5.6,0-11.3,0-16.9,0c7.2-13,14.5-25.9,21.7-38.8c0.9-1.6,1.6-3.3,2-5.1c0.9-3.4-0.2-7.2-2.9-9.4
		c-3.2-2.8-8.1-3.1-11.7-0.9c-4.9,2.9-5.7,10-2.7,14.6c1.9,2.8,5.5,3.7,8.7,3.9c-2.3,4.4-4.7,8.8-7.1,13.1
		c-8.1-1.8-14.8-8.3-17.1-16.2C42,228.2,43.2,219.7,47.9,213.4"/>
	<path class="st1" d="M-86.5,203.4c-1.1,0-2.2,0.1-3.3,0.2c-9.8,1-18.5,8.7-20.6,18.4c-1.2,5.3-1,11.1,1.3,16.1
		c2.8,6.2,8.3,11,14.8,13.1c10.7,3.6,23.6-0.6,29.5-10.4c6.3-10,4.1-24.4-5.3-31.7C-74.6,205.3-80.5,203.4-86.5,203.4 M-169.3,203.4
		c-7.4,0-14.8,3.2-19.4,9.1c-7.6,9.2-7,24,1.5,32.4c7.7,8.3,21.3,10,31,4c5.5-3.3,9.5-8.9,10.9-15.1c-4.2-0.1-8.4,0-12.7,0
		c-1.1,2.3-2.6,4.4-4.7,5.9c-3.9,2.8-9.4,2.8-13.3,0.1c-6.4-4.4-7.8-14.1-3.4-20.4c3-4.6,9.4-6.6,14.5-4.4c3.2,1.4,5.6,4.2,6.9,7.4
		c4.2,0,8.4,0,12.7,0c-1.2-6.6-5.6-12.3-11.3-15.6C-160.5,204.5-164.9,203.4-169.3,203.4 M2.3,203.4c-2.7,0-5.3,0-7.9,0
		c0,16.3,0,32.6,0,48.9c6.3,0,12.5,0,18.8,0c6.6-0.2,13.5-2.2,18-7.3c4.7-5.2,5.9-12.6,5.5-19.4c-0.3-7.3-3.9-14.6-10.2-18.7
		c-4.8-3.1-10.7-3.6-16.2-3.5C7.6,203.5,4.9,203.4,2.3,203.4 M-140.2,203.4c0,16.3,0,32.6,0,48.9c9,0,18.1,0,27.1,0
		c0-3.7,0-7.4,0-11.1c-4.9,0-9.7,0-14.6,0c0-12.6,0-25.2,0-37.9C-131.8,203.4-136,203.4-140.2,203.4 M-44.1,203.4
		c-4.2,0-8.4,0-12.6,0c0.1,10.6-0.1,21.3,0.1,31.9c0,5.4,2.7,10.8,7.2,13.9c3.7,2.4,8.1,3.3,12.5,3.2c8.3,0,16.7,0,25,0
		c0-16.3,0-32.6,0-48.9H-23v38c-4.9,0-9.8,0-14.7,0c-1.7,0-3.5-0.5-4.6-1.8c-1.5-1.9-1.8-4.4-1.8-6.8L-44.1,203.4 M-85.7,214
		c3.9,0.1,7.6,2.2,9.7,5.3c4.4,6.1,3.2,15.6-3,20.1c-4.5,3.4-11.4,2.9-15.5-1c-5.4-5-6-14.1-1.4-19.8c2.2-2.8,5.7-4.5,9.3-4.6
		C-86.2,214-86,214-85.7,214 M11.2,214.5c3.3,0,6.5,0.3,9,2.7c4.4,4.2,4.6,11.1,3.1,16.6c-0.8,2.8-2.8,5.4-5.6,6.6
		c-3.4,1.5-7.3,1-10.9,1.1c0-9,0-17.9,0-26.9C8.2,214.5,9.7,214.5,11.2,214.5"/>
	
		<linearGradient id="SVGID_00000021813559208464169240000017826933855525049475_" gradientUnits="userSpaceOnUse" x1="-443.719" y1="-339.4273" x2="-250.8436" y2="-339.4273" gradientTransform="matrix(0.7149 0 0 -0.7149 192.6134 -115.2307)">
		<stop  offset="0" style="stop-color:#00AAEC"/>
		<stop  offset="1" style="stop-color:#0076D0"/>
	</linearGradient>
	<path style="fill:url(#SVGID_00000021813559208464169240000017826933855525049475_);" d="M-72,83.5c10.2-7.8,26.1-7.5,35.7,1.1
		c6.6,5.8,9.4,15,8.3,23.6c-0.9,5.1-3.2,9.9-5.6,14.5c-4.1,7.4-8.1,14.9-12.2,22.3c7.7,4.3,15.4,8.6,23.1,12.9
		c1.9,1.1,3.9,2,6.1,2.6c3.6,1,7.9,0.1,10.5-2.7c3.9-4,4-11.1,0.1-15.1c-3.6-3.9-9.9-4.1-14.4-1.7c-3.5,2-4.7,6.3-4.9,10
		c-4.8-2.7-9.7-5.2-14.6-7.9c1.7-7.5,7-14,13.9-17.3c10.8-5.2,25.2-2.8,33,6.6c8.3,10.1,8.2,26.4-0.6,36.2C1.7,174-5.7,177-13,177
		c-6.1,0.3-11.7-2.5-17-5C-50.1,161.2-70,150-90,139.1c-3-1.5-6.4-2.8-9.8-2c-3.5,0.6-6.5,3.3-7.7,6.6c-1.4,3.9-0.6,8.7,2.4,11.6
		c3.6,3.6,9.5,3.8,13.9,1.6c3.7-1.9,4.9-6.3,5.2-10.1c4.9,2.6,9.8,5.2,14.6,7.9c-2.5,11.4-13.5,20-25.1,20c-7.1,0.3-14.3-2-19.5-6.8
		c-11.8-10.7-11.2-32.1,1.6-41.8c7.5-5.7,18.1-7.1,26.7-3.3c9.7,3.9,18.4,9.8,27.8,14.4c4.5-8.1,9.1-16.2,13.6-24.3
		c1.7-3.3,3.1-7.2,1.9-10.9c-1.3-4.9-6.5-8.1-11.5-7.5c-4.6,0.3-8.7,4-9.4,8.6c-0.5,3.5,0,7.4,2.5,10.1c2.3,2.4,5.7,3.2,8.9,3.4
		c-2.7,4.9-5.2,9.8-7.9,14.6c-10.3-2.3-18.5-11.5-19.7-22C-82.9,99.6-79.6,89.4-72,83.5"/>
</g>
</svg>
