<?xml version="1.0" encoding="utf-8"?>
<!-- Generator: Adobe Illustrator 26.0.2, SVG Export Plug-In . SVG Version: 6.00 Build 0)  -->
<svg version="1.1" xmlns="http://www.w3.org/2000/svg" xmlns:xlink="http://www.w3.org/1999/xlink" x="0px" y="0px"
	 viewBox="0 0 35.9 40" style="enable-background:new 0 0 35.9 40;" xml:space="preserve">
<style type="text/css">
	.st0{fill:#FFFFFF;}
	.st1{fill:#482D8C;}
</style>
<g id="Layer_2">
	<rect x="2" y="2" class="st0" width="31.9" height="36"/>
</g>
<g id="Layer_1" xmlns:sketch="http://www.bohemiancoding.com/sketch/ns">
	<desc>A platform as a service division of Salesforce.com</desc>
	<path class="st1" d="M20.4,16c-2.7,0-5.5,0.7-7.5,1.4V6h-4v17.3l2.8-1.3c0,0,4.6-2.1,8.6-2.1c2,0,2.5,1.1,2.5,2.1v12h4V22
		c0.1-0.3,0.1-2.5-1.6-4.2C24.4,17,22.9,16,20.4,16z"/>
	<polygon class="st1" points="9,34 13.5,30 9,26 	"/>
	<path class="st1" d="M32.3,0H3.6C1.6,0,0,1.6,0,3.6v32.8c0,2,1.6,3.6,3.6,3.6h28.7c2,0,3.6-1.6,3.6-3.6V3.6C35.9,1.6,34.3,0,32.3,0
		z M33.9,36.4c0,0.9-0.7,1.6-1.6,1.6H3.6C2.7,38,2,37.3,2,36.4V3.6C2,2.7,2.7,2,3.6,2h28.7c0.9,0,1.6,0.7,1.6,1.6V36.4z"/>
	<path class="st1" d="M19.9,12.5h4c1.8-2.1,2.7-4.2,3-6.5h-4C22.5,8.3,21.5,10.4,19.9,12.5z"/>
</g>
</svg>
