<?xml version="1.0" encoding="utf-8"?>
<!-- Generator: Adobe Illustrator 26.0.2, SVG Export Plug-In . SVG Version: 6.00 Build 0)  -->
<svg version="1.1" id="Layer_1" xmlns="http://www.w3.org/2000/svg" xmlns:xlink="http://www.w3.org/1999/xlink" x="0px" y="0px"
	 viewBox="0 0 792 612" style="enable-background:new 0 0 792 612;" xml:space="preserve">
<style type="text/css">
	.st0{fill:url(#SVGID_1_);}
</style>
<linearGradient id="SVGID_1_" gradientUnits="userSpaceOnUse" x1="390.4385" y1="379.1461" x2="399.8031" y2="245.226">
	<stop  offset="0" style="stop-color:#130965"/>
	<stop  offset="1" style="stop-color:#5391E7"/>
</linearGradient>
<path class="st0" d="M70.67,260.37c0.7-1.32,1.89-2.24,3.56-2.77c1.67-0.53,3.78-0.79,6.33-0.79c2.55,0,4.57,0.22,6.07,0.66
	c1.49,0.44,2.64,0.97,3.43,1.58c0.79,0.62,1.41,1.5,1.85,2.64c0.44,1.5,0.66,3.78,0.66,6.86v73.19c0,2.02-0.07,3.54-0.2,4.55
	c-0.13,1.01-0.55,2.18-1.25,3.5c-1.23,2.37-4.66,3.56-10.29,3.56c-6.15,0-9.76-1.63-10.81-4.88c-0.53-1.49-0.79-3.78-0.79-6.86
	v-26.77H34.27v26.9c0,2.02-0.07,3.54-0.2,4.55c-0.13,1.01-0.55,2.18-1.25,3.5c-1.23,2.37-4.66,3.56-10.29,3.56
	c-6.15,0-9.76-1.63-10.81-4.88c-0.53-1.49-0.79-3.78-0.79-6.86v-73.19c0-2.02,0.07-3.54,0.2-4.55c0.13-1.01,0.55-2.18,1.25-3.49
	c1.23-2.37,4.66-3.56,10.29-3.56c6.15,0,9.8,1.63,10.95,4.88c0.44,1.5,0.66,3.78,0.66,6.86v26.9h34.95v-27.03
	c0-2.02,0.07-3.54,0.2-4.55C69.55,262.86,69.96,261.69,70.67,260.37z M112.21,292.68c7.38-6.86,15.82-10.29,25.32-10.29
	s17.89,3.41,25.19,10.22c7.3,6.81,10.95,15.5,10.95,26.05c0,7.3-1.89,13.78-5.67,19.45c-3.78,5.67-8.37,9.85-13.78,12.53
	c-5.41,2.68-11.01,4.02-16.81,4.02c-5.8,0-11.43-1.43-16.88-4.29c-5.45-2.86-10.05-7.08-13.78-12.66c-3.74-5.58-5.6-11.89-5.6-18.92
	C101.13,308.24,104.82,299.54,112.21,292.68z M128.69,328.22c2.81,2.16,5.67,3.23,8.57,3.23s5.8-1.1,8.7-3.3
	c2.9-2.2,4.35-5.45,4.35-9.76c0-4.31-1.36-7.52-4.09-9.63c-2.73-2.11-5.67-3.17-8.84-3.17s-6.11,1.1-8.84,3.3
	c-2.73,2.2-4.09,5.43-4.09,9.69C124.47,322.86,125.88,326.07,128.69,328.22z M213.09,353.21c-8.88,0-16.24-3.36-22.09-10.09
	c-5.85-6.73-8.77-14.92-8.77-24.59v-23.08c0-2.11,0.07-3.65,0.2-4.62c0.13-0.97,0.5-2.11,1.12-3.43c1.23-2.37,4.66-3.56,10.29-3.56
	c6.15,0,9.76,1.67,10.81,5.01c0.53,1.41,0.79,3.65,0.79,6.73v23.08c0,3.61,1.03,6.42,3.1,8.44c2.06,2.02,4.83,3.03,8.31,3.03
	c3.47,0,6.28-1.05,8.44-3.17c2.15-2.11,3.23-4.88,3.23-8.31v-23.34c0-2.02,0.07-3.54,0.2-4.55c0.13-1.01,0.55-2.18,1.25-3.49
	c1.14-2.29,4.53-3.43,10.15-3.43c5.54,0,8.92,1.19,10.15,3.56c0.61,1.32,0.99,2.49,1.12,3.49c0.13,1.01,0.2,2.53,0.2,4.55v46.68
	c0,1.93-0.07,3.41-0.2,4.42c-0.13,1.01-0.55,2.13-1.25,3.36c-1.32,2.29-4.7,3.43-10.15,3.43c-5.36,0-8.66-1.05-9.89-3.17
	c-0.88-1.49-1.32-3.3-1.32-5.41c-0.35,0.62-1.14,1.5-2.37,2.64c-1.23,1.14-2.42,2.11-3.56,2.9
	C219.86,352.24,216.61,353.21,213.09,353.21z M262.67,347.28c-1.67-1.05-2.51-2.72-2.51-5.01c0-2.29,1.67-5.76,5.01-10.42
	c0.97-1.49,2.53-2.24,4.68-2.24c2.15,0,5.08,1.08,8.77,3.23c3.69,2.16,7.03,3.23,10.02,3.23c5.36,0,8.04-1.06,8.04-3.17
	c0-1.67-2.95-2.9-8.84-3.69c-5.54-0.79-11.03-2.86-16.48-6.2c-2.55-1.58-4.66-4.07-6.33-7.45c-1.67-3.38-2.51-7.41-2.51-12.07
	c0-13.89,9.54-20.84,28.62-20.84c6.24,0,12.66,1.5,19.25,4.48c3.08,1.41,4.62,3.17,4.62,5.27s-0.97,4.7-2.9,7.78
	c-1.93,3.08-3.91,4.62-5.93,4.62c-1.06,0-3.01-0.66-5.87-1.98c-2.86-1.32-5.96-1.98-9.3-1.98c-5.19,0-7.78,0.97-7.78,2.9
	c0,2.64,2.99,4.35,8.97,5.14c5.8,0.62,11.43,2.29,16.88,5.01c2.55,1.23,4.68,3.36,6.4,6.4c1.71,3.03,2.57,6.84,2.57,11.41
	c0,4.57-0.86,8.46-2.57,11.67c-1.71,3.21-4.11,5.61-7.19,7.19c-5.63,2.73-12.68,4.09-21.17,4.09
	C278.65,354.66,270.5,352.2,262.67,347.28z M393.63,310.42c0,5.41-1.34,9.41-4.02,12c-2.68,2.59-5.65,3.89-8.9,3.89h-31.25
	c0,2.46,1.45,4.53,4.35,6.2c2.9,1.67,5.8,2.5,8.7,2.5c5.1,0,9.1-0.53,12-1.58l1.45-0.53c2.11-0.97,3.87-1.45,5.27-1.45
	c2.81,0,5.23,1.98,7.25,5.93c1.14,2.37,1.71,4.4,1.71,6.07c0,7.83-9.36,11.74-28.09,11.74c-6.51,0-12.29-1.12-17.34-3.36
	c-5.06-2.24-8.99-5.21-11.8-8.9c-5.54-7.12-8.31-15.08-8.31-23.87c0-11.08,3.58-19.93,10.75-26.57c7.16-6.64,16.11-9.96,26.84-9.96
	c12.22,0,21.19,4.31,26.9,12.92C392.13,300.02,393.63,305.01,393.63,310.42z M365.8,314.31c3.34,0,5.01-1.41,5.01-4.22
	c0-2.02-0.77-3.65-2.31-4.88c-1.54-1.23-3.74-1.85-6.59-1.85c-2.86,0-5.69,1.17-8.51,3.49c-2.81,2.33-4.22,4.81-4.22,7.45H365.8z
	 M424.88,293.21c4.13-6.24,9.1-9.36,14.9-9.36c8.97,0,15.65,3.82,20.04,11.47c0.97-1.32,2.13-2.7,3.49-4.15
	c1.36-1.45,3.54-3.03,6.53-4.75c2.99-1.71,6.07-2.57,9.23-2.57c7.03,0,12.92,2.7,17.67,8.11s7.12,14.35,7.12,26.84v23.08
	c0,2.02-0.07,3.54-0.2,4.55c-0.13,1.01-0.55,2.18-1.25,3.5c-1.14,2.37-4.53,3.56-10.15,3.56c-5.54,0-8.92-1.23-10.15-3.69
	c-0.62-1.32-0.99-2.48-1.12-3.5c-0.13-1.01-0.2-2.53-0.2-4.55v-23.08c0-7.65-2.73-11.47-8.18-11.47c-3.08,0-5.17,1.01-6.26,3.03
	c-1.1,2.02-1.65,4.88-1.65,8.57v23.08c0,2.11-0.07,3.65-0.2,4.62c-0.13,0.97-0.55,2.11-1.25,3.43c-1.23,2.37-4.66,3.56-10.29,3.56
	c-5.54,0-8.92-1.23-10.15-3.69c-0.62-1.32-0.99-2.48-1.12-3.5c-0.13-1.01-0.2-2.53-0.2-4.55v-23.08c0-7.65-2.73-11.47-8.18-11.47
	c-5.28,0-7.91,3.82-7.91,11.47V342c0,2.02-0.07,3.54-0.2,4.55c-0.13,1.01-0.55,2.18-1.25,3.5c-1.32,2.29-4.75,3.43-10.29,3.43
	s-8.92-1.19-10.15-3.56c-0.62-1.32-0.99-2.46-1.12-3.43c-0.13-0.97-0.2-2.51-0.2-4.62v-46.42c0-2.02,0.07-3.54,0.2-4.55
	c0.13-1.01,0.55-2.13,1.25-3.36c1.32-2.37,4.44-3.56,9.36-3.56c4.92,0,8.13,0.79,9.63,2.37
	C424.13,287.93,424.88,290.22,424.88,293.21z M559.52,291.36c0.53-4.92,4-7.39,10.42-7.39c3.43,0,5.98,0.26,7.65,0.79
	c1.67,0.53,2.83,1.45,3.49,2.77s1.05,2.49,1.19,3.49c0.13,1.01,0.2,2.53,0.2,4.55v46.16c0,2.02-0.07,3.54-0.2,4.55
	c-0.13,1.01-0.51,2.18-1.12,3.5c-1.23,2.29-4.24,3.43-9.03,3.43c-4.79,0-8-0.59-9.63-1.78c-1.63-1.19-2.57-2.92-2.84-5.21
	c-3.25,4.66-8.68,6.99-16.29,6.99c-7.61,0-14.66-3.47-21.17-10.42c-6.51-6.94-9.76-15.01-9.76-24.2c0-9.19,3.27-17.23,9.82-24.13
	c6.55-6.9,13.74-10.35,21.56-10.35c2.99,0,5.71,0.53,8.18,1.58c2.46,1.06,4.17,2.04,5.14,2.97
	C558.12,289.58,558.91,290.48,559.52,291.36z M535.52,318.79c0,2.9,1.14,5.52,3.43,7.85c2.29,2.33,5.05,3.5,8.31,3.5
	c3.25,0,5.96-1.19,8.11-3.56c2.15-2.37,3.23-4.99,3.23-7.85c0-2.86-1.03-5.52-3.1-7.98c-2.07-2.46-4.84-3.69-8.31-3.69
	c-3.47,0-6.29,1.23-8.44,3.69C536.6,313.21,535.52,315.89,535.52,318.79z M633.37,307.32l-8.57-0.53v18.2
	c0,2.37,0.37,4.09,1.12,5.14c0.75,1.05,2.15,1.58,4.22,1.58c2.06,0,3.65,0.07,4.75,0.2c1.1,0.13,2.26,0.55,3.49,1.25
	c2.02,1.14,3.03,4.09,3.03,8.84c0,5.54-1.23,8.92-3.69,10.15c-1.32,0.62-2.49,0.99-3.49,1.12c-1.01,0.13-2.49,0.2-4.42,0.2
	c-9.14,0-16.09-2.06-20.84-6.2c-4.75-4.13-7.12-11.12-7.12-20.97v-19.52c-1.67,0.26-3.47,0.4-5.41,0.4c-1.94,0-3.54-0.75-4.81-2.24
	c-1.28-1.49-1.91-4.04-1.91-7.65c0-3.6,0.22-6.22,0.66-7.85c0.44-1.63,1.05-2.79,1.85-3.49c1.41-1.14,3.17-1.71,5.28-1.71l4.35,0.53
	v-13.58c0-2.02,0.07-3.52,0.2-4.48c0.13-0.97,0.55-2.02,1.25-3.17c1.14-2.2,4.53-3.3,10.15-3.3c5.98,0,9.54,1.63,10.68,4.88
	c0.44,1.41,0.66,3.65,0.66,6.73v12.92c3.87-0.35,6.79-0.53,8.77-0.53c1.98,0,3.47,0.07,4.48,0.2c1.01,0.13,2.18,0.55,3.49,1.25
	c2.29,1.14,3.43,4.53,3.43,10.15c0,5.54-1.19,8.92-3.56,10.15c-1.32,0.62-2.48,0.99-3.49,1.12
	C636.91,307.25,635.39,307.32,633.37,307.32z M716.59,310.42c0,5.41-1.34,9.41-4.02,12c-2.68,2.59-5.65,3.89-8.9,3.89h-31.25
	c0,2.46,1.45,4.53,4.35,6.2c2.9,1.67,5.8,2.5,8.7,2.5c5.1,0,9.1-0.53,12-1.58l1.45-0.53c2.11-0.97,3.87-1.45,5.28-1.45
	c2.81,0,5.23,1.98,7.25,5.93c1.14,2.37,1.71,4.4,1.71,6.07c0,7.83-9.36,11.74-28.09,11.74c-6.51,0-12.29-1.12-17.34-3.36
	c-5.06-2.24-8.99-5.21-11.8-8.9c-5.54-7.12-8.31-15.08-8.31-23.87c0-11.08,3.58-19.93,10.75-26.57c7.16-6.64,16.11-9.96,26.84-9.96
	c12.22,0,21.19,4.31,26.9,12.92C715.09,300.02,716.59,305.01,716.59,310.42z M688.76,314.31c3.34,0,5.01-1.41,5.01-4.22
	c0-2.02-0.77-3.65-2.31-4.88c-1.54-1.23-3.74-1.85-6.59-1.85c-2.86,0-5.69,1.17-8.51,3.49c-2.82,2.33-4.22,4.81-4.22,7.45H688.76z
	 M725.68,347.28c-1.67-1.05-2.51-2.72-2.51-5.01c0-2.29,1.67-5.76,5.01-10.42c0.97-1.49,2.53-2.24,4.68-2.24
	c2.15,0,5.08,1.08,8.77,3.23c3.69,2.16,7.03,3.23,10.02,3.23c5.36,0,8.04-1.06,8.04-3.17c0-1.67-2.95-2.9-8.84-3.69
	c-5.54-0.79-11.03-2.86-16.48-6.2c-2.55-1.58-4.66-4.07-6.33-7.45c-1.67-3.38-2.5-7.41-2.5-12.07c0-13.89,9.54-20.84,28.62-20.84
	c6.24,0,12.66,1.5,19.25,4.48c3.08,1.41,4.62,3.17,4.62,5.27s-0.97,4.7-2.9,7.78c-1.94,3.08-3.91,4.62-5.93,4.62
	c-1.05,0-3.01-0.66-5.87-1.98c-2.86-1.32-5.96-1.98-9.3-1.98c-5.19,0-7.78,0.97-7.78,2.9c0,2.64,2.99,4.35,8.97,5.14
	c5.8,0.62,11.43,2.29,16.88,5.01c2.55,1.23,4.68,3.36,6.4,6.4c1.71,3.03,2.57,6.84,2.57,11.41c0,4.57-0.86,8.46-2.57,11.67
	c-1.71,3.21-4.11,5.61-7.19,7.19c-5.63,2.73-12.68,4.09-21.17,4.09C741.66,354.66,733.51,352.2,725.68,347.28z"/>
</svg>
