<?xml version="1.0" encoding="utf-8"?>
<!-- Generator: Adobe Illustrator 26.0.2, SVG Export Plug-In . SVG Version: 6.00 Build 0)  -->
<svg version="1.1" xmlns="http://www.w3.org/2000/svg" xmlns:xlink="http://www.w3.org/1999/xlink" x="0px" y="0px"
	 viewBox="0 0 589.83 361.24" style="enable-background:new 0 0 589.83 361.24;" xml:space="preserve">
<style type="text/css">
	.st0{fill:#689F63;}
	.st1{fill-rule:evenodd;clip-rule:evenodd;fill:#FFFFFF;}
	.st2{fill-rule:evenodd;clip-rule:evenodd;fill:#689F63;}
	.st3{display:none;}
	.st4{display:inline;}
	.st5{display:inline;clip-path:url(#SVGID_00000130626751672403860770000006783858119501116311_);}
	.st6{fill:url(#SVGID_00000084526108607535540780000004749156395897548971_);}
	.st7{display:inline;clip-path:url(#SVGID_00000182494472874281186820000017010985660534553270_);}
	.st8{fill:url(#SVGID_00000042721081648309548860000007743872751735118269_);}
	.st9{display:inline;clip-path:url(#SVGID_00000076587421525737313030000003912247997302420404_);}
	.st10{fill:url(#SVGID_00000114064921138002224080000015842272670896587696_);}
	.st11{fill:url(#SVGID_00000050627611061951680410000002282031682172398996_);}
	
		.st12{clip-path:url(#SVGID_00000133489582801192037160000002993353183047746482_);fill:url(#SVGID_00000123426501894259043370000010986753153228741560_);}
	
		.st13{clip-path:url(#SVGID_00000060740615543010398120000014342871563386523571_);fill:url(#SVGID_00000084505271899935248440000014187038519731817639_);}
</style>
<g id="Layer_1">
	<path class="st0" d="M291.53,361.24c-1.95,0-3.88-0.51-5.59-1.49l-17.78-10.53c-2.66-1.49-1.36-2.01-0.48-2.31
		c3.54-1.24,4.26-1.52,8.04-3.67c0.4-0.23,0.92-0.15,1.32,0.09l13.66,8.11c0.49,0.27,1.19,0.27,1.65,0l53.27-30.75
		c0.49-0.28,0.81-0.85,0.81-1.44v-61.47c0-0.61-0.32-1.16-0.82-1.47l-53.25-30.72c-0.49-0.29-1.15-0.29-1.64,0l-53.23,30.72
		c-0.52,0.29-0.84,0.87-0.84,1.45v61.47c0,0.59,0.32,1.15,0.83,1.43l14.59,8.43c7.92,3.96,12.76-0.71,12.76-5.4v-60.67
		c0-0.87,0.68-1.53,1.55-1.53h6.75c0.84,0,1.53,0.67,1.53,1.53v60.69c0,10.56-5.76,16.63-15.77,16.63c-3.08,0-5.51,0-12.28-3.33
		l-13.97-8.05c-3.45-2-5.59-5.73-5.59-9.72v-61.47c0-4,2.13-7.73,5.59-9.71l53.32-30.76c3.37-1.91,7.85-1.91,11.2,0l53.25,30.77
		c3.44,1.99,5.59,5.71,5.59,9.71v61.47c0,3.99-2.15,7.71-5.59,9.71l-53.25,30.76c-1.71,0.99-3.64,1.49-5.61,1.49"/>
	<path class="st0" d="M307.98,318.88c-23.31,0-28.19-10.7-28.19-19.67c0-0.85,0.69-1.53,1.54-1.53h6.88c0.76,0,1.4,0.55,1.52,1.3
		c1.04,7.01,4.13,10.55,18.23,10.55c11.23,0,16-2.54,16-8.49c0-3.43-1.36-5.97-18.8-7.68c-14.59-1.44-23.6-4.65-23.6-16.32
		c0-10.75,9.07-17.15,24.25-17.15c17.05,0,25.51,5.92,26.57,18.64c0.04,0.44-0.12,0.87-0.41,1.19c-0.29,0.31-0.71,0.49-1.13,0.49
		h-6.92c-0.72,0-1.35-0.51-1.49-1.2c-1.67-7.37-5.69-9.73-16.64-9.73c-12.25,0-13.68,4.27-13.68,7.47c0,3.88,1.68,5.01,18.21,7.2
		c16.37,2.17,24.15,5.24,24.15,16.75c0,11.6-9.68,18.25-26.56,18.25 M372.79,253.76h1.79c1.47,0,1.75-1.03,1.75-1.63
		c0-1.57-1.08-1.57-1.68-1.57h-1.84L372.79,253.76z M370.61,248.72h3.96c1.36,0,4.03,0,4.03,3.04c0,2.12-1.36,2.56-2.17,2.83
		c1.59,0.11,1.69,1.15,1.91,2.61c0.11,0.92,0.28,2.51,0.6,3.04h-2.44c-0.07-0.53-0.44-3.47-0.44-3.63c-0.16-0.65-0.39-0.97-1.2-0.97
		h-2.01v4.61h-2.23V248.72z M365.85,254.45c0,4.77,3.85,8.64,8.59,8.64c4.77,0,8.63-3.95,8.63-8.64c0-4.79-3.91-8.59-8.64-8.59
		c-4.67,0-8.59,3.75-8.59,8.57 M384.72,254.48c0,5.65-4.63,10.27-10.27,10.27c-5.6,0-10.27-4.56-10.27-10.27
		c0-5.81,4.77-10.27,10.27-10.27c5.53,0,10.25,4.47,10.25,10.27"/>
	<path class="st1" d="M126.58,120.73c0-2.45-1.29-4.71-3.41-5.93L66.7,82.31c-0.95-0.56-2.02-0.85-3.1-0.89h-0.58
		c-1.08,0.04-2.15,0.33-3.12,0.89L3.42,114.81c-2.1,1.23-3.42,3.48-3.42,5.93l0.12,87.52c0,1.21,0.63,2.35,1.69,2.95
		c1.04,0.64,2.35,0.64,3.39,0l33.57-19.23c2.12-1.26,3.41-3.49,3.41-5.92v-40.89c0-2.44,1.29-4.69,3.41-5.91l14.29-8.23
		c1.06-0.61,2.23-0.92,3.41-0.92c1.17,0,2.36,0.3,3.39,0.92l14.29,8.23c2.11,1.21,3.41,3.47,3.41,5.91v40.88
		c0,2.43,1.31,4.67,3.42,5.92l33.55,19.21c1.05,0.63,2.36,0.63,3.41,0c1.03-0.6,1.69-1.73,1.69-2.95L126.58,120.73z M393.07,166.3
		c0,0.61-0.32,1.17-0.85,1.47l-19.4,11.18c-0.53,0.3-1.18,0.3-1.7,0l-19.4-11.18c-0.53-0.3-0.85-0.87-0.85-1.47v-22.39
		c0-0.61,0.32-1.17,0.84-1.48l19.39-11.2c0.53-0.31,1.19-0.31,1.72,0l19.4,11.2c0.53,0.31,0.85,0.87,0.85,1.48L393.07,166.3z
		 M398.31,0.43c-1.06-0.59-2.35-0.57-3.39,0.04c-1.04,0.61-1.68,1.73-1.68,2.95v86.67c0,0.85-0.45,1.64-1.19,2.07
		c-0.73,0.43-1.65,0.43-2.39,0L375.51,84c-2.11-1.22-4.7-1.22-6.82,0l-56.49,32.6c-2.11,1.21-3.41,3.47-3.41,5.89v65.23
		c0,2.44,1.3,4.68,3.41,5.91l56.49,32.63c2.11,1.21,4.71,1.21,6.82,0l56.49-32.64c2.11-1.23,3.41-3.47,3.41-5.91V25.15
		c0-2.47-1.35-4.75-3.51-5.96L398.31,0.43z M586.44,143.32c2.1-1.22,3.39-3.47,3.39-5.9v-15.81c0-2.43-1.29-4.68-3.4-5.9
		L530.3,83.13c-2.12-1.23-4.72-1.23-6.84,0l-56.48,32.6c-2.12,1.23-3.41,3.47-3.41,5.91v65.2c0,2.45,1.32,4.72,3.44,5.93
		l56.12,31.99c2.07,1.19,4.6,1.2,6.69,0.04l33.95-18.87c1.07-0.6,1.75-1.73,1.75-2.96c0-1.23-0.65-2.37-1.72-2.97l-56.83-32.61
		c-1.07-0.6-1.72-1.73-1.72-2.95v-20.45c0-1.22,0.64-2.35,1.71-2.95l17.68-10.2c1.05-0.61,2.35-0.61,3.4,0l17.69,10.2
		c1.05,0.6,1.71,1.73,1.71,2.95v16.08c0,1.21,0.65,2.35,1.71,2.96c1.05,0.6,2.36,0.6,3.41-0.01L586.44,143.32z"/>
	<path class="st2" d="M526.05,140.27c0.4-0.24,0.9-0.24,1.31,0l10.84,6.25c0.41,0.23,0.65,0.67,0.65,1.13v12.52
		c0,0.47-0.25,0.9-0.65,1.13l-10.84,6.25c-0.41,0.24-0.91,0.24-1.31,0l-10.83-6.25c-0.41-0.23-0.67-0.67-0.67-1.13v-12.52
		c0-0.47,0.24-0.9,0.65-1.13L526.05,140.27z"/>
	<g class="st3">
		<defs>
			<path id="SVGID_1_" d="M214.3,83.45l-56.17,32.42c-2.1,1.21-3.39,3.45-3.39,5.87v64.89c0,2.42,1.29,4.66,3.39,5.87l56.18,32.45
				c2.1,1.21,4.69,1.21,6.79,0l56.17-32.45c2.09-1.21,3.39-3.45,3.39-5.87v-64.89c0-2.42-1.29-4.66-3.4-5.87l-56.16-32.42
				c-1.05-0.6-2.23-0.91-3.4-0.91s-2.35,0.3-3.4,0.91"/>
		</defs>
		<clipPath id="SVGID_00000034810436714312660130000013562508764540015267_" class="st4">
			<use xlink:href="#SVGID_1_"  style="overflow:visible;"/>
		</clipPath>
		
			<g transform="translate(-78.306 -164.016)" style="display:inline;clip-path:url(#SVGID_00000034810436714312660130000013562508764540015267_);">
			
				<linearGradient id="SVGID_00000113316749551114175360000010524452730834230437_" gradientUnits="userSpaceOnUse" x1="-21.4574" y1="653.2689" x2="-19.8582" y2="653.2689" gradientTransform="matrix(-50.7531 103.536 103.536 50.7531 -68389.2969 -30698.2422)">
				<stop  offset="0.3" style="stop-color:#3E863D"/>
				<stop  offset="0.5" style="stop-color:#55934F"/>
				<stop  offset="0.8" style="stop-color:#5AAD45"/>
			</linearGradient>
			<path style="fill:url(#SVGID_00000113316749551114175360000010524452730834230437_);" d="M415.72,274.39L257.43,196.8
				l-81.16,165.57l158.28,77.59L415.72,274.39z"/>
		</g>
	</g>
	<g class="st3">
		<defs>
			<path id="SVGID_00000147937529357662237570000016269168170097046447_" d="M156.12,190.76c0.54,0.7,1.21,1.3,2,1.75l48.19,27.83
				l8.03,4.61c1.2,0.69,2.57,0.99,3.91,0.89c0.45-0.04,0.9-0.12,1.33-0.24l59.25-108.48c-0.45-0.49-0.98-0.91-1.58-1.25
				l-36.78-21.24l-19.44-11.19c-0.55-0.32-1.15-0.55-1.76-0.71L156.12,190.76z"/>
		</defs>
		<clipPath id="SVGID_00000109715028364022781710000008660993441876762242_" class="st4">
			<use xlink:href="#SVGID_00000147937529357662237570000016269168170097046447_"  style="overflow:visible;"/>
		</clipPath>
		
			<g transform="translate(-78.306 -164.016)" style="display:inline;clip-path:url(#SVGID_00000109715028364022781710000008660993441876762242_);">
			
				<linearGradient id="SVGID_00000097493443976256885800000016396568868431573406_" gradientUnits="userSpaceOnUse" x1="-22.1121" y1="651.1233" x2="-21.0742" y2="651.1233" gradientTransform="matrix(142.4074 -105.2221 -105.2221 -142.4074 71883.375 90771.0469)">
				<stop  offset="0.57" style="stop-color:#3E863D"/>
				<stop  offset="0.72" style="stop-color:#619857"/>
				<stop  offset="1" style="stop-color:#76AC64"/>
			</linearGradient>
			<path style="fill:url(#SVGID_00000097493443976256885800000016396568868431573406_);" d="M165.99,297.33L277.76,448.6
				L425.57,339.4L313.8,188.13L165.99,297.33z"/>
		</g>
	</g>
	<g class="st3">
		<defs>
			<path id="SVGID_00000122710546779837637490000016003282979805142676_" d="M217.01,82.58c-0.94,0.09-1.86,0.39-2.71,0.87
				l-56.01,32.33l60.4,110.01c0.84-0.12,1.67-0.4,2.41-0.83l56.17-32.45c1.73-1.01,2.92-2.71,3.28-4.63L218.98,82.69
				c-0.45-0.09-0.91-0.14-1.37-0.14c-0.19,0-0.37,0.01-0.56,0.03"/>
		</defs>
		<clipPath id="SVGID_00000024701250847976162370000001526895391540912010_" class="st4">
			<use xlink:href="#SVGID_00000122710546779837637490000016003282979805142676_"  style="overflow:visible;"/>
		</clipPath>
		
			<g transform="translate(-78.306 -164.016)" style="display:inline;clip-path:url(#SVGID_00000024701250847976162370000001526895391540912010_);">
			
				<linearGradient id="SVGID_00000127027354216317920170000003025354553633333894_" gradientUnits="userSpaceOnUse" x1="-20.8814" y1="651.0614" x2="-19.9403" y2="651.0614" gradientTransform="matrix(129.8891 0 0 -129.8891 2948.8621 84883.9688)">
				<stop  offset="0.16" style="stop-color:#6BBF47"/>
				<stop  offset="0.38" style="stop-color:#79B461"/>
				<stop  offset="0.47" style="stop-color:#75AC64"/>
				<stop  offset="0.7" style="stop-color:#659E5A"/>
				<stop  offset="0.9" style="stop-color:#3E863D"/>
			</linearGradient>
			<path style="fill:url(#SVGID_00000127027354216317920170000003025354553633333894_);" d="M236.59,246.57v143.24h122.24V246.57
				L236.59,246.57z"/>
		</g>
	</g>
</g>
<g id="Layer_2">
	
		<linearGradient id="SVGID_00000065758254890511532530000010117812453237505420_" gradientUnits="userSpaceOnUse" x1="249.2801" y1="99.21" x2="186.0952" y2="208.6496">
		<stop  offset="0.0486" style="stop-color:#3E863D"/>
		<stop  offset="0.3939" style="stop-color:#55934F"/>
		<stop  offset="0.8" style="stop-color:#5AAD45"/>
	</linearGradient>
	<path style="fill:url(#SVGID_00000065758254890511532530000010117812453237505420_);" d="M213.66,224.56l-55.12-31.83
		c-2.49-1.44-4.03-4.1-4.03-6.98V122.1c0-2.88,1.54-5.54,4.03-6.98l55.12-31.83c2.49-1.44,5.57-1.44,8.06,0l55.12,31.83
		c2.49,1.44,4.03,4.1,4.03,6.98v63.65c0,2.88-1.54,5.54-4.03,6.98l-55.12,31.83C219.22,226,216.15,226,213.66,224.56z"/>
	<g>
		<defs>
			<polygon id="SVGID_00000026842432001027903690000006018784250872373906_" points="215.39,233.25 151.94,198.4 220.76,80.01 
				280.25,114.53 			"/>
		</defs>
		<clipPath id="SVGID_00000051367326318429107680000000991543667401585826_">
			<use xlink:href="#SVGID_00000026842432001027903690000006018784250872373906_"  style="overflow:visible;"/>
		</clipPath>
		
			<linearGradient id="SVGID_00000108993321558982143390000004156572612808843162_" gradientUnits="userSpaceOnUse" x1="155.37" y1="189.7861" x2="279.58" y2="118.0735">
			<stop  offset="0.57" style="stop-color:#3E863D"/>
			<stop  offset="0.72" style="stop-color:#619857"/>
			<stop  offset="1" style="stop-color:#76AC64"/>
		</linearGradient>
		
			<path style="clip-path:url(#SVGID_00000051367326318429107680000000991543667401585826_);fill:url(#SVGID_00000108993321558982143390000004156572612808843162_);" d="
			M213.44,224.56l-55.12-31.83c-2.49-1.44-4.03-4.1-4.03-6.98V122.1c0-2.88,1.54-5.54,4.03-6.98l55.12-31.83
			c2.49-1.44,5.57-1.44,8.06,0l55.12,31.83c2.49,1.44,4.03,4.1,4.03,6.98v63.65c0,2.88-1.54,5.54-4.03,6.98l-55.12,31.83
			C219.01,226,215.94,226,213.44,224.56z"/>
	</g>
	<g>
		<defs>
			<polygon id="SVGID_00000183222622837829644320000018443296381349639848_" points="252.75,140.3 252.75,140.3 215.92,77.25 
				155.28,110.32 221.5,231 258.09,204.28 258.09,204.28 280.55,197.58 280.55,187.88 			"/>
		</defs>
		<clipPath id="SVGID_00000157303190864633170560000015909177358170921652_">
			<use xlink:href="#SVGID_00000183222622837829644320000018443296381349639848_"  style="overflow:visible;"/>
		</clipPath>
		
			<linearGradient id="SVGID_00000111155615365722478020000004061509468064796308_" gradientUnits="userSpaceOnUse" x1="280.8726" y1="153.9298" x2="154.5027" y2="153.9298">
			<stop  offset="0.1" style="stop-color:#3E863D"/>
			<stop  offset="0.3" style="stop-color:#659E5A"/>
			<stop  offset="0.53" style="stop-color:#75AC64"/>
			<stop  offset="0.62" style="stop-color:#79B461"/>
			<stop  offset="0.84" style="stop-color:#6BBF47"/>
		</linearGradient>
		
			<path style="clip-path:url(#SVGID_00000157303190864633170560000015909177358170921652_);fill:url(#SVGID_00000111155615365722478020000004061509468064796308_);" d="
			M213.66,224.56l-55.12-31.83c-2.49-1.44-4.03-4.1-4.03-6.98V122.1c0-2.88,1.54-5.54,4.03-6.98l55.12-31.83
			c2.49-1.44,5.57-1.44,8.06,0l55.12,31.83c2.49,1.44,4.03,4.1,4.03,6.98v63.65c0,2.88-1.54,5.54-4.03,6.98l-55.12,31.83
			C219.22,226,216.15,226,213.66,224.56z"/>
	</g>
</g>
</svg>
